<svg width="146" height="146" viewBox="0 0 146 146" fill="none" xmlns="http://www.w3.org/2000/svg">
<path d="M73.1868 5.71269C81.9992 5.71269 90.7253 7.44842 98.8669 10.8208C107.008 14.1931 114.406 19.136 120.637 25.3673C126.869 31.5986 131.812 38.9962 135.184 47.1378C138.556 55.2794 140.292 64.0055 140.292 72.8178C140.292 81.6302 138.556 90.3563 135.184 98.4979C131.812 106.639 126.869 114.037 120.637 120.268C114.406 126.5 107.008 131.443 98.8669 134.815C90.7253 138.187 81.9992 139.923 73.1868 139.923C64.3745 139.923 55.6484 138.187 47.5068 134.815C39.3652 131.443 31.9676 126.5 25.7363 120.268C19.505 114.037 14.5621 106.639 11.1898 98.4979C7.81741 90.3563 6.08169 81.6302 6.08169 72.8178C6.08169 64.0055 7.81741 55.2794 11.1898 47.1378C14.5621 38.9962 19.505 31.5986 25.7363 25.3673C31.9676 19.136 39.3652 14.1931 47.5068 10.8208C55.6484 7.44841 64.3745 5.71269 73.1868 5.71269L73.1868 5.71269Z" stroke="#DBDFF1" stroke-width="4.89873"/>
<path d="M73.5 23.4494C79.9414 23.4494 86.3198 24.7181 92.2709 27.1831C98.222 29.6482 103.629 33.2612 108.184 37.816C112.739 42.3707 116.352 47.778 118.817 53.7291C121.282 59.6802 122.551 66.0586 122.551 72.5C122.551 78.9414 121.282 85.3198 118.817 91.2709C116.352 97.222 112.739 102.629 108.184 107.184C103.629 111.739 98.222 115.352 92.2709 117.817C86.3198 120.282 79.9414 121.551 73.5 121.551C67.0586 121.551 60.6802 120.282 54.7291 117.817C48.778 115.352 43.3707 111.739 38.816 107.184C34.2612 102.629 30.6481 97.222 28.1831 91.2709C25.7181 85.3198 24.4494 78.9414 24.4494 72.5C24.4494 66.0586 25.7181 59.6802 28.1831 53.7291C30.6481 47.778 34.2612 42.3707 38.816 37.816C43.3707 33.2612 48.778 29.6481 54.7291 27.1831C60.6802 24.7181 67.0586 23.4494 73.5 23.4494L73.5 23.4494Z" stroke="#DBDFF1" stroke-width="4.89873"/>
<path d="M73 24C84.3364 24 95.3221 27.9307 104.085 35.1225C112.848 42.3142 118.847 52.322 121.058 63.4406C123.27 74.5592 121.558 86.1006 116.214 96.0984C110.87 106.096 102.225 113.932 91.7515 118.27C81.278 122.608 69.6243 123.181 58.7761 119.89C47.9278 116.599 38.5562 109.649 32.258 100.223C25.9598 90.7971 23.1248 79.479 24.2359 68.1972C25.3471 56.9153 30.3357 46.3678 38.3518 38.3518" stroke="#FFBA69" stroke-width="10" stroke-linecap="round"/>
<path d="M73 5.00001C84.365 5.00001 95.5488 7.84852 105.529 13.2852C115.509 18.7218 123.968 26.5732 130.131 36.1217C136.295 45.6702 139.967 56.6112 140.812 67.9448C141.657 79.2783 139.648 90.6429 134.968 101C130.288 111.357 123.087 120.375 114.023 127.232C104.96 134.088 94.3218 138.563 83.0824 140.248C71.8431 141.933 60.3606 140.775 49.6845 136.878C39.0085 132.981 29.4793 126.471 21.9681 117.942" stroke="#FF708B" stroke-width="10" stroke-linecap="round"/>
<path d="M73 5.00001C86.6504 5.00001 99.9849 9.10831 111.269 16.7904" stroke="#8676FF" stroke-width="10" stroke-linecap="round"/>
<circle cx="73.5" cy="72.5" r="29.5" fill="#F4F6FF"/>
<path d="M73.9998 82.8333C68.0166 82.8333 63.1665 77.9832 63.1665 72C63.1665 66.0167 68.0166 61.1666 73.9998 61.1666C79.9831 61.1666 84.8332 66.0167 84.8332 72C84.8332 77.9832 79.9831 82.8333 73.9998 82.8333ZM73.9998 80.6666C76.2984 80.6666 78.5028 79.7535 80.1281 78.1282C81.7534 76.5029 82.6665 74.2985 82.6665 72C82.6665 69.7014 81.7534 67.497 80.1281 65.8717C78.5028 64.2464 76.2984 63.3333 73.9998 63.3333C71.7013 63.3333 69.4969 64.2464 67.8716 65.8717C66.2463 67.497 65.3332 69.7014 65.3332 72C65.3332 74.2985 66.2463 76.5029 67.8716 78.1282C69.4969 79.7535 71.7013 80.6666 73.9998 80.6666V80.6666ZM70.7498 67.6666H77.2498L79.9582 71.4583L73.9998 77.4166L68.0415 71.4583L70.7498 67.6666ZM71.8657 69.8333L70.869 71.2308L73.9998 74.3616L77.1307 71.2308L76.134 69.8333H71.8657V69.8333Z" fill="#8676FF"/>
</svg>
