<svg width="30" height="35" viewBox="0 0 30 35" fill="none" xmlns="http://www.w3.org/2000/svg">
<path d="M22.0839 9.73424V7.86193C22.0839 7.69031 21.9435 7.54988 21.7719 7.54988H6.79332C6.62169 7.54988 6.48126 7.69031 6.48126 7.86193V9.73424C6.48126 9.90587 6.62169 10.0463 6.79332 10.0463H21.7719C21.9435 10.0463 22.0839 9.90587 22.0839 9.73424ZM6.79332 13.1668C6.62169 13.1668 6.48126 13.3072 6.48126 13.4789V15.3512C6.48126 15.5228 6.62169 15.6632 6.79332 15.6632H13.9706C14.1422 15.6632 14.2826 15.5228 14.2826 15.3512V13.4789C14.2826 13.3072 14.1422 13.1668 13.9706 13.1668H6.79332ZM21.4598 17.6915C16.8063 17.6915 13.0344 21.4635 13.0344 26.1169C13.0344 30.7704 16.8063 34.5423 21.4598 34.5423C26.1133 34.5423 29.8853 30.7704 29.8853 26.1169C29.8853 21.4635 26.1133 17.6915 21.4598 17.6915ZM25.6531 30.3101C24.5336 31.4296 23.0435 32.0459 21.4598 32.0459C19.8762 32.0459 18.3861 31.4296 17.2666 30.3101C16.1471 29.1906 15.5308 27.7006 15.5308 26.1169C15.5308 24.5333 16.1471 23.0432 17.2666 21.9237C18.3861 20.8042 19.8762 20.1879 21.4598 20.1879C23.0435 20.1879 24.5336 20.8042 25.6531 21.9237C26.7725 23.0432 27.3889 24.5333 27.3889 26.1169C27.3889 27.7006 26.7725 29.1906 25.6531 30.3101ZM24.9314 23.1524H23.2034C23.102 23.1524 23.0084 23.1992 22.9499 23.2812L20.473 26.7059L19.5719 25.4616C19.543 25.4214 19.505 25.3887 19.4608 25.3663C19.4167 25.3439 19.3678 25.3325 19.3184 25.3329H17.5982C17.3446 25.3329 17.1964 25.6215 17.3446 25.8283L20.2233 29.8108C20.3481 29.9825 20.6017 29.9825 20.7265 29.8108L25.1811 23.6478C25.3332 23.4411 25.185 23.1524 24.9314 23.1524ZM12.4103 30.7977H3.36073V3.3372H25.2045V16.7554C25.2045 16.927 25.3449 17.0674 25.5165 17.0674H27.7009C27.8725 17.0674 28.013 16.927 28.013 16.7554V1.77694C28.013 1.08653 27.4552 0.528736 26.7647 0.528736H1.80046C1.11004 0.528736 0.552246 1.08653 0.552246 1.77694V32.3579C0.552246 33.0484 1.11004 33.6061 1.80046 33.6061H12.4103C12.5819 33.6061 12.7223 33.4657 12.7223 33.2941V31.1097C12.7223 30.9381 12.5819 30.7977 12.4103 30.7977Z" fill="#FCFCFC"/>
</svg>
