<svg width="25" height="23" viewBox="0 0 25 23" fill="none" xmlns="http://www.w3.org/2000/svg">
<path d="M1.38889 10.2222H9.72222C10.0906 10.2222 10.4438 10.0876 10.7043 9.84797C10.9648 9.60834 11.1111 9.28333 11.1111 8.94444V1.27778C11.1111 0.93889 10.9648 0.613882 10.7043 0.374252C10.4438 0.134623 10.0906 0 9.72222 0H1.38889C1.02053 0 0.667263 0.134623 0.406796 0.374252C0.146329 0.613882 0 0.93889 0 1.27778V8.94444C0 9.28333 0.146329 9.60834 0.406796 9.84797C0.667263 10.0876 1.02053 10.2222 1.38889 10.2222ZM15.2778 10.2222H23.6111C23.9795 10.2222 24.3327 10.0876 24.5932 9.84797C24.8537 9.60834 25 9.28333 25 8.94444V1.27778C25 0.93889 24.8537 0.613882 24.5932 0.374252C24.3327 0.134623 23.9795 0 23.6111 0H15.2778C14.9094 0 14.5562 0.134623 14.2957 0.374252C14.0352 0.613882 13.8889 0.93889 13.8889 1.27778V8.94444C13.8889 9.28333 14.0352 9.60834 14.2957 9.84797C14.5562 10.0876 14.9094 10.2222 15.2778 10.2222ZM1.38889 23H9.72222C10.0906 23 10.4438 22.8654 10.7043 22.6257C10.9648 22.3861 11.1111 22.0611 11.1111 21.7222V14.0556C11.1111 13.7167 10.9648 13.3917 10.7043 13.152C10.4438 12.9124 10.0906 12.7778 9.72222 12.7778H1.38889C1.02053 12.7778 0.667263 12.9124 0.406796 13.152C0.146329 13.3917 0 13.7167 0 14.0556V21.7222C0 22.0611 0.146329 22.3861 0.406796 22.6257C0.667263 22.8654 1.02053 23 1.38889 23ZM19.4444 23C22.5083 23 25 20.7077 25 17.8889C25 15.0701 22.5083 12.7778 19.4444 12.7778C16.3806 12.7778 13.8889 15.0701 13.8889 17.8889C13.8889 20.7077 16.3806 23 19.4444 23Z" fill="white"/>
</svg>
