<svg width="25" height="25" viewBox="0 0 25 25" fill="none" xmlns="http://www.w3.org/2000/svg">
<path d="M18.3511 6.76606V5.38991C18.3511 5.26376 18.2314 5.16055 18.0851 5.16055H5.31915C5.17287 5.16055 5.05319 5.26376 5.05319 5.38991V6.76606C5.05319 6.8922 5.17287 6.99541 5.31915 6.99541H18.0851C18.2314 6.99541 18.3511 6.8922 18.3511 6.76606ZM5.31915 9.28899C5.17287 9.28899 5.05319 9.3922 5.05319 9.51835V10.8945C5.05319 11.0206 5.17287 11.1239 5.31915 11.1239H11.4362C11.5824 11.1239 11.7021 11.0206 11.7021 10.8945V9.51835C11.7021 9.3922 11.5824 9.28899 11.4362 9.28899H5.31915ZM17.8191 12.6147C13.8531 12.6147 10.6383 15.387 10.6383 18.8073C10.6383 22.2276 13.8531 25 17.8191 25C21.7852 25 25 22.2276 25 18.8073C25 15.387 21.7852 12.6147 17.8191 12.6147ZM21.393 21.8893C20.4388 22.7122 19.1689 23.1651 17.8191 23.1651C16.4694 23.1651 15.1995 22.7122 14.2453 21.8893C13.2912 21.0665 12.766 19.9713 12.766 18.8073C12.766 17.6433 13.2912 16.5482 14.2453 15.7253C15.1995 14.9025 16.4694 14.4495 17.8191 14.4495C19.1689 14.4495 20.4388 14.9025 21.393 15.7253C22.3471 16.5482 22.8723 17.6433 22.8723 18.8073C22.8723 19.9713 22.3471 21.0665 21.393 21.8893ZM20.7779 16.6284H19.3052C19.2188 16.6284 19.139 16.6628 19.0891 16.723L16.9781 19.2403L16.2101 18.3257C16.1855 18.2961 16.153 18.2721 16.1154 18.2557C16.0778 18.2392 16.0362 18.2308 15.994 18.2311H14.5279C14.3118 18.2311 14.1855 18.4432 14.3118 18.5952L16.7653 21.5224C16.8717 21.6485 17.0878 21.6485 17.1941 21.5224L20.9907 16.9925C21.1203 16.8406 20.994 16.6284 20.7779 16.6284ZM10.1064 22.2477H2.39362V2.06422H21.0106V11.9266C21.0106 12.0528 21.1303 12.156 21.2766 12.156H23.1383C23.2846 12.156 23.4043 12.0528 23.4043 11.9266V0.917431C23.4043 0.409977 22.9289 0 22.3404 0H1.06383C0.475399 0 0 0.409977 0 0.917431V23.3945C0 23.9019 0.475399 24.3119 1.06383 24.3119H10.1064C10.2527 24.3119 10.3723 24.2087 10.3723 24.0826V22.4771C10.3723 22.3509 10.2527 22.2477 10.1064 22.2477Z" fill="#FCFCFC"/>
</svg>
